<?xml version="1.0" standalone="no"?>
<!DOCTYPE svg PUBLIC "-//W3C//DTD SVG 20010904//EN"
 "http://www.w3.org/TR/2001/REC-SVG-20010904/DTD/svg10.dtd">
<svg version="1.0" xmlns="http://www.w3.org/2000/svg"
 width="191.000000pt" height="191.000000pt" viewBox="0 0 191.000000 191.000000"
 preserveAspectRatio="xMidYMid meet">
<metadata>
Created by potrace 1.14, written by Peter Selinger 2001-2017
</metadata>
<g transform="translate(0.000000,191.000000) scale(0.100000,-0.100000)"
fill="#000000" stroke="none">
<path d="M974 1766 c25 -73 8 -152 -81 -392 -55 -149 -57 -152 -96 -169 -149
-66 -211 -269 -121 -400 13 -20 24 -49 24 -64 0 -41 19 -90 40 -101 10 -6 34
-10 52 -9 30 1 31 2 8 8 -91 25 -55 180 135 581 113 236 138 306 139 386 1 64
-1 67 -83 164 l-30 35 13 -39z"/>
<path d="M1157 1449 c-7 -50 -62 -166 -155 -327 -97 -166 -158 -293 -179 -375
-20 -75 -13 -99 28 -105 20 -4 21 -2 10 12 -30 36 20 137 192 396 168 253 176
274 141 382 -20 62 -30 67 -37 17z"/>
<path d="M1185 1074 c-27 -36 -57 -73 -65 -82 -8 -9 -40 -49 -71 -87 -113
-143 -161 -228 -139 -249 8 -8 11 -7 8 3 -2 9 8 15 28 16 41 4 114 38 153 71
57 47 95 134 93 209 0 16 3 34 7 40 14 19 48 146 39 144 -2 0 -25 -29 -53 -65z"/>
<path d="M330 350 l0 -110 25 0 c22 0 25 4 25 35 0 47 29 47 61 0 18 -26 31
-35 53 -35 l28 0 -26 34 c-31 42 -31 41 -6 66 21 21 28 80 9 80 -5 0 -8 4 -4
9 10 18 -33 31 -99 31 l-66 0 0 -110z"/>
<path d="M1140 435 c0 -14 -4 -25 -10 -25 -5 0 -10 -7 -10 -15 0 -8 5 -15 10
-15 6 0 10 -21 10 -48 0 -60 21 -92 60 -92 16 0 32 4 35 10 9 15 -8 35 -30 35
-15 0 -19 7 -20 35 -2 47 4 60 26 60 11 0 19 7 19 16 0 11 -6 15 -20 11 -19
-5 -26 12 -21 46 0 4 -10 7 -24 7 -20 0 -25 -5 -25 -25z"/>
<path d="M575 385 c-49 -48 -25 -128 41 -141 47 -9 91 10 74 31 -8 9 -18 12
-29 6 -22 -11 -65 1 -69 19 -2 12 10 14 64 12 l66 -3 -7 33 c-14 68 -92 92
-140 43z"/>
<path d="M777 403 c-11 -3 -16 -10 -13 -20 3 -8 6 -16 6 -18 0 -2 13 2 30 8
22 9 33 8 42 -1 15 -15 10 -19 -25 -26 -58 -10 -67 -17 -67 -46 0 -50 44 -75
91 -50 13 7 19 7 19 0 0 -5 9 -10 20 -10 18 0 20 7 20 63 0 81 -17 107 -68
106 -20 -1 -45 -3 -55 -6z"/>
<path d="M973 395 c-11 -8 -25 -27 -31 -43 -27 -77 70 -145 136 -94 22 17 22
17 3 29 -13 8 -22 9 -26 3 -11 -18 -54 -11 -69 12 -11 15 -12 26 -5 40 13 24
49 38 70 28 8 -5 22 -4 30 1 12 8 11 12 -5 24 -25 19 -76 19 -103 0z"/>
<path d="M1292 392 c-11 -10 -23 -34 -27 -55 -6 -32 -3 -40 23 -67 18 -17 41
-30 56 -30 85 0 125 91 66 150 -26 26 -89 27 -118 2z"/>
<path d="M1480 325 c0 -78 2 -85 20 -85 17 0 20 7 20 46 0 51 14 84 35 84 8 0
15 9 15 20 0 23 -4 24 -31 10 -13 -7 -19 -7 -19 0 0 5 -9 10 -20 10 -18 0 -20
-7 -20 -85z"/>
</g>
</svg>
